<svg width="122" height="122" viewBox="0 0 122 122" xmlns="http://www.w3.org/2000/svg"><title>LogoColor</title><g fill="none" fill-rule="evenodd"><path d="M61.066 120.876c-33.047 0-59.837-26.79-59.837-59.837 0-33.047 26.79-59.837 59.837-59.837 33.047 0 59.837 26.79 59.837 59.837 0 33.047-26.79 59.837-59.837 59.837" fill="#ECEDE3"/><path d="M61.054 120.892c-33.047 0-59.837-26.79-59.837-59.837 0-33.047 26.79-59.837 59.837-59.837 33.047 0 59.837 26.79 59.837 59.837 0 33.047-26.79 59.837-59.837 59.837z" stroke="#F0ECDF" stroke-width="1.425"/><path d="M113.461 61.091c-3.777.076-7.648 6.201-11.336.514 2.99-1.045 6.222-.326 9.332-.489-3.118-.036-6.281-1.223-9.356-.107 3.171-6.302 7.584.158 11.36.082" fill="#7FB642"/><path d="M110.756 61.09c-2.89-.175-5.81-1.114-8.655-.082 3.122-6.201 7.445-.04 11.181.081l-2.526.001zM9.576 61.125c3.778.076 7.649 6.201 11.337.514-2.99-1.046-6.222-.326-9.332-.489 3.118-.036 6.28-1.223 9.355-.108-3.171-6.3-7.583.159-11.36.083" fill="#7FB642"/><path d="M12.282 61.124c2.89-.175 5.81-1.114 8.654-.082-3.12-6.202-7.444-.04-11.181.082h2.527z" fill="#E03725"/><path d="M9.576 61.125c3.778.076 7.649 6.201 11.336.514-2.99-1.046-6.221-.326-9.331-.489 3.118-.036 6.28-1.223 9.356-.108-3.172-6.3-7.584.159-11.36.083" fill="#7FB642"/><path d="M12.282 61.124c2.89-.175 5.81-1.114 8.654-.082-3.12-6.202-7.444-.04-11.181.082h2.527z" fill="#7FB642"/><path d="M73.104 70.844V55.835l-12.05-6.46-12.05 6.46v22.212h-.724V66.758v11.289h-2.268V56.998h-6.664l21.706-11.637 7.522 4.033v-5.33h4.462v7.721l9.723 5.213h-6.67v21.049h-9.49v-.03l.112-.254.12-.253.127-.255.127-.252.132-.25.14-.242.147-.247.145-.242.16-.237.154-.236.165-.236.173-.23.173-.225.172-.23.186-.218.188-.219.192-.218.2-.212.199-.207.207-.207.206-.206.213-.201.219-.195.226-.189.226-.188.225-.19.234-.176.24-.178.239-.178.246-.165.246-.165.252-.165.254-.154.258-.153zM61.054 48.62l-2.7 1.447 2.7-1.447zm12.05 15.535v3.406l-.272.177-.273.176-.267.183-.258.189-.26.189-.259.196-.253.194-.246.207-.246.2-.24.213-.231.212-.234.218-.225.22-.227.223-.219.231-.213.231-.207.23-.206.236-.198.242-.2.241-.193.248-.186.249-.18.253-.173.255-.173.253-.166.26-.167.266-.153.265-.153.266-.146.266-.139.271-.134.278-.132.272-.127.277-.12.284-.113.276-.105.284-.108.29-.092.284-.094.29-.086.289-.079.287-.074.29v.024h-1.403v-.011l.093-.84.133-.831.18-.827.218-.815.267-.808.306-.792.346-.785.385-.769.426-.748.466-.732.498-.71.54-.69.578-.668.605-.643.638-.62.678-.59.698-.567.733-.532.758-.502.684-.411zM58.388 77.698l.033.35h-1.397l-.159-.573-.18-.568-.2-.566-.225-.556-.24-.549-.266-.543-.286-.53-.305-.527-.32-.513-.345-.502-.366-.497-.38-.484-.405-.471-.42-.456-.431-.449-.452-.43-.473-.418-.486-.401-.498-.391-.512-.372-.533-.36-.537-.336V64.16l.332.189.325.196.32.2.318.212.314.213.306.218.305.218.3.231.292.236.286.237.286.242.28.248.271.254.267.26.26.259.258.265.246.273.248.277.238.277.227.284.225.289.22.29.214.295.204.295.2.3.2.308.187.306.18.313.171.314.167.319.16.319.153.324.146.325.138.325.128.33.126.33.12.338.106.336.107.336.093.343.087.342.078.342.075.343.066.343.06.349.045.347.048.348zm-2.826.054l.132.295h-6.689v-7.22l.298.17.293.178.293.183.285.19.287.193.279.202.273.205.266.207.259.212.26.226.252.224.246.223.24.237.24.236.224.242.228.25.219.252.206.255.207.258.198.26.194.272.186.267.186.277.173.277.166.278.159.282.153.29.147.29.14.289z" fill="#4D4D4D"/><path fill="#7AB542" d="M73.104 55.835v5.74l-.153.077-.153.069-.152.077-.153.077-.147.077-.153.083-.153.077-.147.082-.144.083-.147.082-.146.09-.147.082-.146.088-.14.089-.146.089-.14.093-.14.09-.14.094-.14.095-.138.093-.134.096-.139.093-.134.1-.132.102-.14.1-.127.101-.132.1-.134.106-.126.1-.126.107-.132.106-.126.106-.12.112-.128.106-.126.112-.12.107-.12.112-.12.119-.12.111-.111.113-.12.118-.114.118-.113.118-.112.117-.113.12-.114.117-.105.124-.108.118-.113.124-.1.125-.105.123-.107.124-.1.125-.099.129-.1.124-.1.13-.093.13-.1.13-.094.13-.091.13-.095.136-.093.13-.086.135-.085.129-.087.138-.087.135-.087.136-.08.135-.079.136-.08.141-.079.136-.08.143-.075.135-.072.141-.072.142-.074.142-.073.142-.066.142-.068.141-.066.148-.066.142-.06.146-.066.143-.06.147-.054.148-.06.142-.06.148-.053.146-.052.15-.054.146-.047.148-.046.154-.054.147-.04.148-.046.152-.046.148-.04.155-.04.146-.04.154-.033.154-.033.147-.04.153-.028.154-.033.154-.027.154-.033.153-.025.148-.02.154-.027.16-.02.151-.02.154-.02.155-.02.153-.013.152-.014.154-.013.154-.013.16-.008.154-.012.152-.007.154v.159l-.007.154v.619l.007.154.007.154.006.16v.005h-1.37v-.548l.007-.183.006-.184v-.183l.008-.183.013-.183.006-.183.014-.184.013-.183.014-.181.012-.184.02-.183.014-.183.02-.184.019-.182.027-.184.02-.183.027-.182.027-.183.027-.178.027-.182.033-.184.033-.176.025-.183.04-.183.034-.178.033-.183.04-.177.04-.183.04-.178.04-.183.046-.176.047-.177.047-.183.047-.178.046-.176.047-.178.052-.177.053-.177.054-.178.052-.177.062-.176.058-.178.053-.177.06-.171.068-.178.058-.176.068-.172.066-.177.066-.171.067-.17.066-.178.074-.17.072-.173.075-.17.072-.173.073-.17.08-.172.073-.165.08-.17.08-.173.087-.165.079-.17.087-.167.086-.164.087-.172.087-.166.086-.165.091-.165.094-.159.087-.165.1-.165.093-.16.093-.166.1-.16.099-.158.1-.166.1-.16.1-.159.106-.16.106-.152.107-.16.106-.159.107-.153.105-.154.114-.16.114-.154.105-.152.12-.154.113-.153.114-.15.12-.151.12-.149.111-.153.128-.147.12-.148.118-.148.128-.147.126-.147.12-.143.132-.147.126-.142.126-.141.134-.149.126-.141.133-.135.133-.142.133-.143.14-.135.133-.142.14-.136.139-.135.133-.136.147-.135.14-.13.14-.136.146-.13.139-.13.146-.13.147-.13.146-.13.145-.13.153-.123.147-.13.152-.125.153-.124.153-.123.153-.125.153-.117.154-.125.16-.119.153-.117.159-.118.16-.118.16-.118.16-.119z"/><path fill="#4D4D4D" d="M70.06 55.298l-.52.42-.505.425-.492.436-.486.449-.478.455-.466.46-.452.472-.44.478-.432.491-.419.495-.411.503-.401.507-.378.52-.38.525-.357.531-.348.54-.338.541-.32.55-.312.554v-5.963l.233-.29.246-.276.252-.272.266-.266.273-.26.28-.253.286-.249.291-.236.306-.23.308-.225.318-.218.327-.207.324-.194.34-.194.34-.178.352-.178.352-.165.36-.154.365-.147.365-.135zM66.62 53.457l-.477.247-.473.253-.465.267-.467.271-.451.283-.446.29-.44.3-.432.308-.425.313-.42.324v-5.266z"/><path fill="#7AB542" d="M61.135 77.297l.013.75h-1.364l.013-.59-.006-.59-.034-.59-.053-.592-.073-.585-.093-.584-.12-.585-.14-.577-.159-.574-.18-.566-.206-.56-.22-.556-.245-.55-.266-.542-.286-.537-.305-.52-.327-.52-.345-.501-.36-.497-.386-.484-.398-.472-.413-.46-.432-.45-.453-.437-.464-.418-.486-.409-.492-.388-.512-.378-.526-.366-.538-.343-.553-.331-.564-.319-.572-.295-.585-.277v-5.769l.657.473.646.49.625.502.619.513.597.531.579.55.566.555.55.572.526.591.52.596.492.609.48.619.457.632.439.644.42.655.398.662.38.667.36.685.338.684.318.697.293.709.28.708.252.715.233.726.213.726.193.732.166.737.147.739.12.744.099.75.08.743.052.751z"/><path fill="#4D4D4D" d="M59.984 51.047v5.267l-.526-.402-.531-.39-.545-.377-.56-.367-.573-.348-.578-.342-.585-.32-.599-.311zM52.101 55.298l.519.42.506.425.492.436.485.449.48.455.464.46.452.472.44.478.432.491.42.495.41.503.401.507.378.52.38.525.358.531.347.54.339.541.32.55.312.554v-5.963l-.234-.29-.246-.276-.252-.272-.266-.266-.273-.26-.279-.253-.287-.249-.291-.236-.306-.23-.307-.225-.319-.218-.326-.207-.325-.194-.34-.194-.339-.178-.353-.178-.351-.165-.36-.154-.366-.147-.365-.135zM53.006 17.618c.036.225.069.434.098.63.03.196.056.374.075.53.021.158.033.289.039.395.005.108-.001.199-.022.27a.225.225 0 0 1-.14.15.714.714 0 0 1-.114.039c-.042.01-.092.02-.147.028-.046.01-.077.023-.092.041-.015.02-.02.037-.016.056.004.025.02.042.046.05.028.01.065.011.112.003a13.575 13.575 0 0 0 .52-.1 4.9 4.9 0 0 0 .248-.043c.074-.014.133-.026.177-.032a106.58 106.58 0 0 1 .876-.12c.185-.022.392-.049.622-.08.23-.033.486-.07.768-.116.093-.013.165-.027.217-.041.053-.014.09-.036.112-.068a.295.295 0 0 0 .044-.142c.005-.041.007-.096.008-.17 0-.073 0-.152-.004-.236-.002-.086-.007-.166-.012-.24a1.936 1.936 0 0 0-.017-.175.436.436 0 0 0-.03-.113c-.014-.033-.037-.049-.066-.047a.064.064 0 0 0-.051.036.28.28 0 0 0-.017.088c0 .153-.019.276-.055.368a.456.456 0 0 1-.184.223c-.063.04-.135.07-.219.099a2.41 2.41 0 0 1-.25.066c-.084.018-.16.032-.227.042a2.854 2.854 0 0 1-.609.048.515.515 0 0 1-.345-.133c-.077-.078-.13-.198-.16-.361l-.04-.224-.046-.302-.048-.31a17.903 17.903 0 0 0-.037-.242l-.092-.583a.169.169 0 0 1 0-.055c.003-.015.013-.025.03-.029l.183-.027.276-.038a13.875 13.875 0 0 1 .57-.072c.075-.01.129-.015.158-.016a.68.68 0 0 1 .234.018c.06.017.108.042.144.076a.39.39 0 0 1 .086.123.963.963 0 0 1 .037.135c.01.046.022.088.03.126.003.017.01.03.023.04.012.01.03.013.055.01.023-.006.038-.017.046-.037a.194.194 0 0 0 .012-.07.67.67 0 0 0-.006-.07 5.09 5.09 0 0 1-.043-.493l-.012-.295-.006-.169a.622.622 0 0 0-.007-.075.087.087 0 0 0-.025-.051.057.057 0 0 0-.046-.017c-.016.003-.032.016-.046.036-.014.02-.035.046-.06.077a.35.35 0 0 1-.129.097 1.202 1.202 0 0 1-.212.072 4.647 4.647 0 0 1-.185.038c-.087.015-.188.034-.3.052-.115.02-.229.04-.341.057-.114.02-.216.035-.303.05l-.186.029c-.022.003-.036-.003-.045-.017a.127.127 0 0 1-.019-.052l-.285-1.797a.086.086 0 0 1 .005-.052c.007-.014.019-.022.036-.025l.17-.025c.08-.012.173-.025.276-.038l.311-.042a10.043 10.043 0 0 1 .43-.048c.125-.008.222-.004.29.011a.34.34 0 0 1 .158.069.503.503 0 0 1 .09.107.385.385 0 0 1 .048.09 1.035 1.035 0 0 1 .045.167c.005.03.011.052.022.068.01.015.029.02.053.017.02-.005.034-.014.043-.032a.143.143 0 0 0 .018-.054.76.76 0 0 0 .005-.047 3.002 3.002 0 0 0-.014-.247l-.012-.143a4.967 4.967 0 0 0-.007-.097 2.279 2.279 0 0 1-.015-.407.357.357 0 0 0 0-.073.092.092 0 0 0-.017-.045c-.009-.013-.023-.018-.044-.015a.21.21 0 0 0-.055.023.544.544 0 0 1-.06.03l-.126.042a2.403 2.403 0 0 1-.184.05 3.78 3.78 0 0 1-.185.034l-.357.058-.448.069c-.159.025-.31.049-.457.07-.145.024-.272.044-.381.06l-.225.036c-.073.01-.17.025-.29.04l-.39.054-.41.06a.421.421 0 0 0-.125.034c-.028.017-.04.036-.035.062.004.025.02.042.045.052a.196.196 0 0 0 .095.005c.057-.01.115-.017.171-.022a.774.774 0 0 1 .133 0 .652.652 0 0 1 .199.047c.05.023.09.058.119.104.029.045.052.11.07.19l.027.143.031.18c.011.072.027.159.043.264l.062.391.089.562.203 1.283zm-9.576-1.3a.161.161 0 0 1-.016-.08c.004-.022.018-.042.043-.06a.882.882 0 0 1 .157-.094c.07-.034.155-.07.256-.111a1.307 1.307 0 0 1 .713-.069c.136.023.27.075.406.151.134.078.262.188.383.334.12.144.227.33.32.557.087.22.141.417.16.595.02.176.013.33-.015.464-.03.135-.074.245-.132.338a.749.749 0 0 1-.107.138.69.69 0 0 1-.154.112 2.714 2.714 0 0 1-.69.252 1.413 1.413 0 0 1-.207.03.108.108 0 0 1-.077-.024.248.248 0 0 1-.053-.09l-.987-2.442zm.353 3.605c.1.247.194.48.28.698.087.217.162.413.226.588s.113.322.146.441c.022.081.037.158.046.227a.456.456 0 0 1-.008.181.212.212 0 0 1-.093.128 1.544 1.544 0 0 1-.276.149.222.222 0 0 0-.093.058.056.056 0 0 0-.01.058c.012.028.033.043.067.045a.32.32 0 0 0 .126-.03c.082-.032.172-.07.267-.111l.282-.124.25-.11.172-.075c.032-.013.089-.034.172-.064.082-.03.18-.066.293-.11l.36-.135c.125-.047.248-.096.366-.143a.335.335 0 0 0 .111-.067c.023-.025.028-.05.017-.079a.06.06 0 0 0-.044-.037c-.02-.006-.046 0-.079.012a2.738 2.738 0 0 1-.406.127.36.36 0 0 1-.215-.003.362.362 0 0 1-.153-.117 1.135 1.135 0 0 1-.124-.195 5.501 5.501 0 0 1-.202-.418c-.075-.17-.158-.366-.247-.583-.09-.217-.185-.452-.286-.702l-.045-.113c-.01-.024-.011-.042-.003-.058.007-.013.021-.024.041-.032l.705-.266a.276.276 0 0 1 .083-.023.154.154 0 0 1 .085.02c.039.02.103.059.188.113l.303.194.368.237.384.244c.232.146.441.27.626.374.186.105.356.188.511.249.156.06.302.098.44.113.084.01.168.01.252.003.086-.008.18-.028.287-.06.107-.033.234-.077.383-.138l.763-.308a.333.333 0 0 0 .106-.061.07.07 0 0 0 .014-.08.057.057 0 0 0-.043-.038c-.021-.006-.047-.001-.08.012a.88.88 0 0 1-.104.036 2.181 2.181 0 0 1-.27.053 1.546 1.546 0 0 1-.555-.053 2.725 2.725 0 0 1-.426-.152 16.824 16.824 0 0 1-1.146-.59c-.43-.24-.912-.513-1.45-.819.18-.326.308-.62.382-.883.075-.263.105-.503.092-.722a1.906 1.906 0 0 0-.14-.622 1.467 1.467 0 0 0-.47-.619 1.473 1.473 0 0 0-.276-.174 1.13 1.13 0 0 0-.246-.087 1.888 1.888 0 0 0-.553-.035c-.183.016-.364.05-.543.103a5.59 5.59 0 0 0-.521.184c-.065.025-.144.06-.242.102-.097.041-.2.087-.31.135l-.316.137a9.609 9.609 0 0 1-.44.178l-.274.101c-.103.038-.21.077-.322.12-.112.043-.222.085-.33.129a.428.428 0 0 0-.127.069c-.024.022-.031.047-.02.075a.065.065 0 0 0 .058.043.318.318 0 0 0 .108-.026c.059-.023.117-.046.177-.066a.918.918 0 0 1 .146-.037.52.52 0 0 1 .237.001.325.325 0 0 1 .164.105.905.905 0 0 1 .13.213l.071.154c.024.056.054.122.086.199.032.078.073.175.119.29.049.116.107.26.177.432l.25.62.571 1.415zm-5.648 5.502c-.307.188-.617.3-.932.334a2.105 2.105 0 0 1-.92-.105c-.298-.104-.58-.268-.843-.49a3.524 3.524 0 0 1-.696-.817 3.65 3.65 0 0 1-.403-.85 2.022 2.022 0 0 1-.093-.71 1.548 1.548 0 0 1 .45-1.017c.126-.128.261-.236.407-.326.264-.163.54-.264.83-.304.29-.038.581-.013.874.073.291.087.57.237.838.453.268.216.51.495.728.84.183.297.317.568.4.815.084.246.127.469.134.669.004.201-.018.379-.066.537a1.54 1.54 0 0 1-.455.706c-.09.081-.175.145-.253.192zm-.053.504a3.8 3.8 0 0 0 .841-.705c.23-.26.405-.537.53-.83a2.84 2.84 0 0 0 .131-1.825 3.242 3.242 0 0 0-.389-.892 2.952 2.952 0 0 0-.79-.855 2.39 2.39 0 0 0-.986-.406 2.782 2.782 0 0 0-1.124.054c-.394.094-.795.27-1.205.524a4.017 4.017 0 0 0-.814.659 3.023 3.023 0 0 0-.512.723 2.674 2.674 0 0 0-.25.75 2.868 2.868 0 0 0 .115 1.418 2.852 2.852 0 0 0 .698 1.117c.164.164.348.31.554.434a2.71 2.71 0 0 0 1.436.397c.272-.001.555-.047.851-.137.295-.09.6-.232.914-.426zm-11.818 4.84l.018-.017c.052-.004.157-.005.318-.004l.598.005c.238.001.496 0 .776-.001.28-.004.566-.01.857-.02.28-.01.565-.02.857-.032.29-.01.576-.022.851-.033.278-.01.533-.023.767-.034.235-.01.434-.02.598-.029a.63.63 0 0 0 .172-.024.343.343 0 0 0 .157-.092c.022-.023.029-.054.019-.098a.362.362 0 0 0-.103-.151l-3.28-3.289a1.705 1.705 0 0 1-.215-.25.383.383 0 0 1-.076-.19.334.334 0 0 1 .047-.18.684.684 0 0 1 .144-.187.189.189 0 0 0 .052-.086.064.064 0 0 0-.018-.061c-.02-.02-.046-.023-.074-.006a.426.426 0 0 0-.096.082c-.13.135-.24.252-.327.351a6.675 6.675 0 0 1-.178.197l-.167.167a17.304 17.304 0 0 0-.52.52.495.495 0 0 0-.087.106c-.018.03-.015.058.005.078a.065.065 0 0 0 .056.02c.024-.003.051-.02.084-.052a2.85 2.85 0 0 1 .087-.089c.035-.033.07-.065.11-.095a.56.56 0 0 1 .111-.073.35.35 0 0 1 .173-.038.48.48 0 0 1 .2.078c.074.048.166.123.275.224l2.41 2.219-.024.025c-.034.002-.11.004-.232.005l-.446.004-.565.007-.584.008-.507.01c-.312.01-.62.018-.928.024-.305.006-.596.012-.87.016-.276.005-.523.007-.74.01-.22.003-.397.005-.533.005-.137.003-.22.003-.249.003-.093.001-.176.004-.246.01s-.123.026-.157.059c-.026.029-.032.068-.014.117a.399.399 0 0 0 .105.151l3.092 3.083c.152.148.267.27.35.366a.724.724 0 0 1 .152.239.226.226 0 0 1-.022.183 1.196 1.196 0 0 1-.1.144c-.04.048-.079.091-.116.13a.16.16 0 0 0-.043.078c-.005.025 0 .047.015.063.025.022.051.025.08.01a.402.402 0 0 0 .096-.08c.091-.095.176-.186.253-.273.077-.086.143-.159.196-.22l.104-.118c.05-.05.137-.133.26-.25.123-.117.272-.265.445-.442a.361.361 0 0 0 .076-.102c.014-.03.01-.056-.012-.077a.064.064 0 0 0-.061-.015.174.174 0 0 0-.085.054c-.043.045-.09.09-.144.135a.97.97 0 0 1-.17.116.247.247 0 0 1-.163.021.67.67 0 0 1-.24-.106 2.87 2.87 0 0 1-.351-.282l-2.223-2.026zm-6.11 8.94l.013-.022c.05-.016.151-.043.308-.08l.581-.14.753-.189c.27-.07.546-.146.826-.227.269-.076.543-.156.824-.238.28-.08.553-.16.818-.238.267-.078.512-.15.736-.218.226-.067.416-.125.573-.173a.626.626 0 0 0 .162-.065.347.347 0 0 0 .13-.127c.015-.027.014-.06-.006-.1a.368.368 0 0 0-.137-.122l-3.978-2.397a1.74 1.74 0 0 1-.27-.19.384.384 0 0 1-.118-.168.333.333 0 0 1 .002-.185.83.83 0 0 1 .095-.215.19.19 0 0 0 .028-.097c-.002-.026-.013-.045-.032-.055-.025-.015-.05-.011-.073.012a.423.423 0 0 0-.073.103c-.094.163-.172.303-.233.42-.06.116-.102.194-.125.234a19.978 19.978 0 0 0-.5.831.53.53 0 0 0-.058.125c-.01.035-.002.06.023.076a.07.07 0 0 0 .06.006c.022-.01.044-.033.068-.073l.063-.106c.026-.04.051-.08.083-.12a.56.56 0 0 1 .09-.097.346.346 0 0 1 .16-.079.476.476 0 0 1 .212.028c.084.028.191.079.321.15l2.876 1.57-.018.03c-.032.01-.106.031-.223.062l-.432.112-.546.143c-.193.05-.381.1-.565.15l-.49.132c-.3.085-.598.166-.894.247l-.841.227-.716.188c-.213.056-.384.101-.516.134l-.24.063c-.09.023-.17.045-.236.069-.067.023-.114.054-.139.095-.018.034-.014.073.015.117a.393.393 0 0 0 .138.121l3.747 2.244c.183.107.324.197.427.27a.738.738 0 0 1 .206.195c.033.058.041.12.022.184a1.192 1.192 0 0 1-.062.163 2.504 2.504 0 0 1-.08.154.167.167 0 0 0-.024.086c.002.027.012.046.03.058.03.015.056.012.08-.009a.396.396 0 0 0 .074-.102c.066-.114.126-.223.18-.325l.137-.26c.036-.074.06-.12.072-.14.037-.062.1-.163.192-.307.09-.143.2-.322.325-.536a.376.376 0 0 0 .049-.117c.006-.033-.004-.057-.03-.072-.019-.012-.04-.012-.064 0a.178.178 0 0 0-.069.073c-.03.054-.065.108-.107.165a.968.968 0 0 1-.137.154.248.248 0 0 1-.153.06.684.684 0 0 1-.257-.045 2.941 2.941 0 0 1-.41-.189l-2.647-1.427zm-1.488 7.377c.265.096.509.185.735.27.225.082.424.16.599.23.174.07.316.131.426.187.114.054.2.11.255.168a.24.24 0 0 1 .066.216c-.005.04-.012.085-.023.136a1.583 1.583 0 0 1-.05.169.22.22 0 0 0-.02.108.055.055 0 0 0 .037.046c.029.01.054.004.077-.02a.324.324 0 0 0 .064-.113c.03-.083.062-.175.094-.273l.099-.296.09-.272a6.345 6.345 0 0 1 .184-.5c.052-.128.108-.274.172-.438.065-.164.13-.337.196-.517a.293.293 0 0 0 .021-.118c-.003-.034-.018-.055-.046-.066-.02-.008-.04-.003-.059.013a.228.228 0 0 0-.053.093 2.963 2.963 0 0 1-.054.136l-.066.142a4.955 4.955 0 0 1-.064.125.407.407 0 0 1-.137.163.321.321 0 0 1-.172.048.801.801 0 0 1-.208-.03 8.254 8.254 0 0 1-.451-.138c-.18-.06-.382-.131-.608-.212-.227-.08-.472-.17-.736-.266l-1.433-.522-.63-.23a41.88 41.88 0 0 1-.731-.27c-.079-.029-.146-.056-.202-.078a21.492 21.492 0 0 1-.157-.066.753.753 0 0 1-.297-.193c-.058-.07-.078-.163-.057-.278a1.104 1.104 0 0 1 .064-.253.236.236 0 0 0 .018-.1c-.004-.028-.02-.048-.052-.06-.025-.009-.047.002-.069.028a.47.47 0 0 0-.059.12c-.028.079-.058.164-.089.257-.033.095-.062.189-.093.283l-.087.262a6.284 6.284 0 0 1-.152.42l-.11.277-.116.29a8.536 8.536 0 0 0-.1.262.623.623 0 0 0-.04.152c0 .036.01.058.035.067.03.011.057.008.078-.011a.243.243 0 0 0 .05-.09c.018-.048.038-.097.062-.146.023-.048.05-.094.078-.135a.306.306 0 0 1 .212-.148.715.715 0 0 1 .344.038l.164.05c.057.02.126.041.205.068l.295.106.438.158.63.23 1.433.521zM97.127 38.831a2.21 2.21 0 0 1-.35-.926c-.039-.312-.009-.62.09-.92.098-.302.256-.585.474-.853a3.55 3.55 0 0 1 .806-.71c.304-.197.586-.335.843-.417a2.01 2.01 0 0 1 .707-.107 1.555 1.555 0 0 1 1.025.433c.13.124.24.257.333.402.167.26.274.535.318.824.044.29.024.58-.057.875a2.446 2.446 0 0 1-.439.846c-.21.271-.486.518-.828.742a4.01 4.01 0 0 1-.807.414 2.302 2.302 0 0 1-.666.146c-.201.008-.38-.01-.538-.056a1.567 1.567 0 0 1-.714-.443 1.773 1.773 0 0 1-.197-.25zm-.503-.044c.215.33.455.606.719.829.264.225.544.395.838.515a2.805 2.805 0 0 0 1.828.1c.304-.087.6-.22.884-.405.354-.232.634-.5.841-.804.206-.305.336-.637.39-.994a2.787 2.787 0 0 0-.074-1.123 4.123 4.123 0 0 0-.545-1.195 4.01 4.01 0 0 0-.673-.803 3.045 3.045 0 0 0-.732-.5c-.25-.12-.5-.198-.753-.236a2.784 2.784 0 0 0-.736-.02 2.904 2.904 0 0 0-1.786.877c-.16.166-.303.354-.424.561a2.71 2.71 0 0 0-.371 1.443c.006.272.056.554.151.849.094.293.242.595.443.906zm-5.202-6.77a7.7 7.7 0 0 0 .66.55c.113.084.223.157.327.22.105.064.202.114.29.148.048.02.09.03.124.035a.204.204 0 0 0 .1-.01.526.526 0 0 0 .112-.055c.054-.032.117-.074.19-.126.074-.053.15-.11.229-.17a7.495 7.495 0 0 0 .506-.416.215.215 0 0 0 .05-.078c.009-.026.003-.049-.019-.071-.023-.024-.048-.032-.076-.024a.45.45 0 0 0-.124.074 1.565 1.565 0 0 1-.38.173 1.28 1.28 0 0 1-.72-.002 1.731 1.731 0 0 1-.475-.246 5.014 5.014 0 0 1-.52-.434 2.33 2.33 0 0 1-.385-.475 2.752 2.752 0 0 1-.277-.608 2.89 2.89 0 0 1-.072-1.473c.054-.262.149-.524.285-.788.137-.263.323-.52.556-.773a4.65 4.65 0 0 1 .612-.559c.217-.166.45-.297.699-.394.25-.095.516-.145.802-.145.171.002.341.026.51.076.17.047.34.125.514.229a3.79 3.79 0 0 1 1.031.976c.137.19.241.375.313.552.071.178.109.337.11.477.001.158-.026.308-.08.449a1.21 1.21 0 0 1-.217.365.416.416 0 0 0-.083.114c-.013.033-.008.062.017.084a.08.08 0 0 0 .091.017.456.456 0 0 0 .12-.091c.034-.03.077-.071.129-.125l.172-.178.185-.192a6.928 6.928 0 0 1 .35-.337l.114-.095a.908.908 0 0 0 .064-.059.09.09 0 0 0 .026-.07c-.001-.028-.018-.059-.05-.095a4.075 4.075 0 0 1-.251-.327 7.904 7.904 0 0 0-.53-.666 7.281 7.281 0 0 0-.27-.293c-.099-.1-.212-.211-.342-.333a5.382 5.382 0 0 0-.913-.699 3.524 3.524 0 0 0-.867-.378 3.198 3.198 0 0 0-1.637-.02 3.21 3.21 0 0 0-.664.26 3.477 3.477 0 0 0-.908.687c-.144.153-.28.324-.406.508a3.4 3.4 0 0 0-.33.603 2.99 2.99 0 0 0-.22 1.491c.037.345.12.675.252.986.13.312.304.61.519.899.215.286.467.564.757.833zm-12.698-9.361a.942.942 0 0 0-.009.225.134.134 0 0 0 .073.109.146.146 0 0 0 .1.014.441.441 0 0 0 .132-.07 3.69 3.69 0 0 0 .208-.158 26.955 26.955 0 0 0 .794-.668l.528-.459.536-.47c.177-.155.34-.297.49-.43l.38-.334.212-.186.016.008-.27 3.946a1.506 1.506 0 0 0-.005.31c.01.066.038.107.083.129.047.025.098.024.152-.009a1.22 1.22 0 0 0 .221-.19c.141-.136.302-.293.484-.473s.378-.368.584-.57c.207-.203.417-.408.631-.614l.621-.603c.203-.193.389-.372.561-.534.171-.162.321-.3.445-.412.109-.103.209-.193.293-.27.086-.077.164-.134.234-.174a.345.345 0 0 1 .2-.05.927.927 0 0 1 .256.09c.031.016.058.02.08.014a.077.077 0 0 0 .052-.043c.01-.02.006-.04-.011-.058a.292.292 0 0 0-.085-.06 19.194 19.194 0 0 0-.572-.271 5.153 5.153 0 0 1-.134-.073l-.252-.139a15.867 15.867 0 0 0-.331-.173.442.442 0 0 0-.128-.049c-.032-.004-.054.004-.066.028-.008.02-.005.043.01.067a.189.189 0 0 0 .07.061.79.79 0 0 1 .195.128c.04.042.063.081.067.118a.188.188 0 0 1-.024.109 1.105 1.105 0 0 1-.101.157 2.11 2.11 0 0 1-.16.186l-.37.38-.448.463-.471.49-.449.463-.37.38c-.107.108-.188.19-.244.243l-.023-.012.293-3.934c.012-.125.013-.222.005-.292-.01-.067-.034-.112-.071-.131-.03-.017-.071-.017-.124 0a.648.648 0 0 0-.199.137L79.805 21.7l-.023-.012c.01-.052.022-.138.042-.26.02-.12.043-.263.072-.43l.093-.54.1-.58.098-.556a57.729 57.729 0 0 1 .146-.776c.033-.174.064-.319.09-.436.025-.116.05-.196.07-.24a.225.225 0 0 1 .054-.078c.02-.016.047-.022.083-.018a.384.384 0 0 1 .097.019.58.58 0 0 1 .088.036.21.21 0 0 0 .097.027c.028 0 .049-.01.062-.033.012-.023.008-.045-.01-.067a.386.386 0 0 0-.105-.07 24.779 24.779 0 0 0-.367-.182l-.283-.134a6.15 6.15 0 0 1-.146-.07l-.099-.053-.184-.1-.236-.128-.26-.135a.408.408 0 0 0-.121-.046c-.032-.003-.053.006-.065.03a.063.063 0 0 0 .002.065c.012.02.036.041.07.058a.954.954 0 0 1 .169.11c.028.024.05.05.067.078a.418.418 0 0 1 .043.225 3.692 3.692 0 0 1-.036.353l-.689 4.9zm-7.45-4.703a34.58 34.58 0 0 1-.333 1.125 5.293 5.293 0 0 1-.132.373c-.04.101-.085.18-.133.236a.224.224 0 0 1-.19.077.719.719 0 0 1-.12-.013 1.841 1.841 0 0 1-.146-.036c-.045-.012-.079-.012-.1-.002-.021.01-.035.025-.038.043-.007.026 0 .047.02.066.021.02.054.037.1.05a18.076 18.076 0 0 0 .514.13c.088.025.169.046.243.064.073.018.131.034.175.046.108.031.231.068.37.112l.474.148c.177.06.375.123.598.191.222.068.47.143.744.221.09.027.162.045.214.054a.199.199 0 0 0 .13-.014.288.288 0 0 0 .1-.11c.022-.035.049-.085.08-.15a6.12 6.12 0 0 0 .096-.217c.034-.078.063-.153.09-.221.028-.07.047-.126.059-.167a.435.435 0 0 0 .02-.114c.002-.037-.013-.061-.04-.072a.064.064 0 0 0-.061.011.284.284 0 0 0-.053.074c-.065.137-.133.24-.206.309a.457.457 0 0 1-.26.125 1.022 1.022 0 0 1-.24-.003 2.678 2.678 0 0 1-.254-.046c-.085-.02-.16-.04-.224-.058a2.896 2.896 0 0 1-.573-.214.518.518 0 0 1-.257-.266c-.036-.103-.033-.234.009-.395l.058-.22c.026-.091.054-.189.086-.293l.087-.302c.029-.093.052-.172.07-.235l.162-.566a.143.143 0 0 1 .023-.05.036.036 0 0 1 .04-.013c.039.011.097.028.177.053.079.023.167.05.266.082a14.945 14.945 0 0 1 .697.228c.089.035.157.072.204.114.047.04.081.085.1.13a.38.38 0 0 1 .025.148 1.022 1.022 0 0 1-.023.139l-.026.126c-.005.017-.005.032.004.046.006.013.02.024.046.032.022.005.041 0 .056-.014a.205.205 0 0 0 .04-.057.62.62 0 0 0 .024-.066l.024-.074c.013-.037.028-.08.046-.126a4.677 4.677 0 0 1 .1-.266l.114-.273c.03-.07.05-.12.066-.155a.82.82 0 0 0 .026-.071.084.084 0 0 0-.002-.058c-.007-.017-.018-.03-.035-.034-.015-.004-.035 0-.056.013-.022.013-.052.027-.087.045a.35.35 0 0 1-.158.033c-.06.001-.134-.008-.222-.024a5.061 5.061 0 0 1-.185-.045c-.085-.022-.184-.048-.294-.08-.111-.03-.223-.06-.332-.092a70.333 70.333 0 0 1-.477-.135c-.02-.006-.03-.017-.034-.033a.126.126 0 0 1 .006-.056l.5-1.749a.086.086 0 0 1 .028-.045c.011-.01.026-.012.042-.007l.165.048.267.083c.1.03.2.062.298.093a11.408 11.408 0 0 1 .41.139c.118.045.204.09.26.132a.335.335 0 0 1 .149.265.414.414 0 0 1 .005.102.96.96 0 0 1-.029.17.158.158 0 0 0-.008.071c.002.017.016.03.04.037.02.004.037.002.052-.01a.146.146 0 0 0 .04-.042l.025-.04.04-.094c.017-.042.034-.088.051-.136l.049-.134.035-.091a2.272 2.272 0 0 1 .16-.375.371.371 0 0 0 .03-.066.097.097 0 0 0 .003-.049c-.003-.016-.014-.026-.034-.033a.209.209 0 0 0-.06-.001.44.44 0 0 1-.066.001 2.691 2.691 0 0 1-.32-.047 3.708 3.708 0 0 1-.182-.048l-.348-.099-.436-.126a45.655 45.655 0 0 1-.444-.129l-.37-.107a11.546 11.546 0 0 1-.5-.148l-.375-.117c-.136-.042-.267-.08-.397-.118a.415.415 0 0 0-.128-.022c-.032.003-.05.015-.058.041-.007.025 0 .046.02.065a.19.19 0 0 0 .084.045c.055.016.11.034.163.053a.663.663 0 0 1 .28.183c.037.042.058.09.065.144a.587.587 0 0 1-.017.203l-.036.14-.048.177c-.02.07-.042.154-.072.257-.03.103-.065.23-.11.38l-.156.548-.358 1.248zm-9.755-3.04l.026.003c.036.037.105.117.207.242l.38.46.5.594c.183.213.372.427.566.643.187.208.38.42.576.636.194.217.387.427.572.631.187.206.36.395.519.566.159.174.295.32.406.44.037.043.08.082.13.116.05.036.106.055.17.061.033.003.061-.013.088-.049a.363.363 0 0 0 .05-.176l.41-4.626c.013-.137.03-.246.054-.327a.39.39 0 0 1 .098-.18.334.334 0 0 1 .167-.079.647.647 0 0 1 .236-.01.199.199 0 0 0 .1-.015c.022-.013.033-.032.035-.053.002-.029-.013-.05-.044-.061a.415.415 0 0 0-.125-.02 10.067 10.067 0 0 0-.478-.025 7.808 7.808 0 0 1-.266-.01 7.053 7.053 0 0 1-.234-.02l-.341-.033a15.453 15.453 0 0 0-.392-.032.515.515 0 0 0-.137.002c-.036.006-.054.025-.058.054a.069.069 0 0 0 .02.056c.019.016.05.025.096.03l.123.01c.048.005.095.011.144.022.047.01.09.022.128.039a.347.347 0 0 1 .14.109.482.482 0 0 1 .068.202c.011.088.013.207.005.356l-.15 3.272-.035-.003a9.028 9.028 0 0 1-.153-.173l-.29-.34-.368-.428c-.13-.15-.257-.299-.382-.442l-.333-.382a107.23 107.23 0 0 1-1.187-1.353l-.483-.56a49.73 49.73 0 0 1-.347-.405l-.162-.188a3.318 3.318 0 0 0-.165-.183.256.256 0 0 0-.147-.082c-.038-.001-.072.02-.098.064a.394.394 0 0 0-.048.178l-.375 4.35a5.843 5.843 0 0 1-.055.503.728.728 0 0 1-.085.27.223.223 0 0 1-.155.101c-.054.01-.112.014-.175.016-.062 0-.12-.001-.173-.005a.164.164 0 0 0-.088.017.07.07 0 0 0-.039.052c0 .033.014.056.044.069.03.012.072.019.124.021.131.01.255.015.37.019l.295.01c.081 0 .133 0 .157.002l.36.039c.168.019.376.037.625.056a.388.388 0 0 0 .126-.006c.032-.01.05-.03.052-.06a.064.064 0 0 0-.028-.056.176.176 0 0 0-.096-.03 1.885 1.885 0 0 1-.196-.024.94.94 0 0 1-.199-.056.24.24 0 0 1-.12-.111.67.67 0 0 1-.073-.251 2.842 2.842 0 0 1-.01-.451l.123-3.005zM102.69 44.743c-.255.082-.492.16-.717.23-.222.072-.423.132-.602.184-.179.053-.33.09-.45.115-.083.017-.16.026-.229.03a.453.453 0 0 1-.18-.02.212.212 0 0 1-.122-.101 1.673 1.673 0 0 1-.065-.122 1.612 1.612 0 0 1-.064-.164.225.225 0 0 0-.052-.098.055.055 0 0 0-.057-.013c-.029.01-.045.03-.05.063a.328.328 0 0 0 .021.129c.028.083.061.174.098.271.038.099.072.196.103.291a8.116 8.116 0 0 1 .16.468c.04.122.081.251.122.39.04.139.084.296.133.475l.184.619c.07.235.154.507.254.814.032.104.061.184.087.24a.227.227 0 0 0 .098.113c.04.02.098.027.174.022.046-.003.113-.012.196-.025a8.664 8.664 0 0 0 .753-.164.41.41 0 0 0 .102-.043c.027-.016.034-.04.025-.072-.009-.027-.023-.045-.047-.05a.268.268 0 0 0-.106 0c-.176.027-.32.027-.435.001a.561.561 0 0 1-.295-.174 1.052 1.052 0 0 1-.15-.226 2.43 2.43 0 0 1-.116-.27c-.033-.09-.06-.173-.084-.246a3.595 3.595 0 0 1-.138-.516.716.716 0 0 1 .01-.331.413.413 0 0 1 .165-.211c.082-.056.193-.107.333-.156.05-.018.115-.04.198-.067.081-.028.173-.058.273-.09l.305-.098.284-.09.218-.07.65-.211a.158.158 0 0 1 .064-.01c.016.002.028.011.035.032l.058.183.085.27.091.297.079.264c.021.076.036.13.042.165a.797.797 0 0 1 .019.265.384.384 0 0 1-.19.3c-.05.03-.1.054-.15.075l-.136.054a.094.094 0 0 0-.047.033c-.01.015-.012.037-.003.066.01.024.023.038.043.043a.14.14 0 0 0 .067 0c.025-.005.049-.013.07-.02a2.04 2.04 0 0 1 .09-.024l.151-.04.173-.043a7.777 7.777 0 0 1 .492-.116c.086-.017.15-.028.192-.035a.635.635 0 0 0 .089-.017c.024-.009.039-.02.046-.034a.06.06 0 0 0 0-.046c-.006-.02-.022-.037-.047-.05a1.045 1.045 0 0 0-.103-.047.325.325 0 0 1-.135-.123 1.327 1.327 0 0 1-.117-.232 5.405 5.405 0 0 1-.07-.19c-.03-.087-.066-.188-.102-.3-.038-.112-.076-.224-.112-.336-.038-.11-.07-.211-.1-.3l-.06-.187c-.008-.025-.005-.043.007-.056a.165.165 0 0 1 .065-.031l2.084-.678c.029-.01.05-.012.068-.007.016.004.027.017.033.038a20.542 20.542 0 0 1 .137.445c.032.102.062.204.092.305.03.102.056.19.076.269.023.077.037.13.042.162.028.141.04.253.036.334a.415.415 0 0 1-.046.194.383.383 0 0 1-.107.12.785.785 0 0 1-.2.115c-.034.015-.06.024-.08.031a.207.207 0 0 0-.08.043c-.016.017-.02.04-.011.069.01.028.026.044.05.05a.161.161 0 0 0 .066.003 4.066 4.066 0 0 0 .287-.067c.06-.015.114-.03.163-.041l.108-.028c.128-.032.228-.054.304-.069.075-.011.131-.02.17-.024a.566.566 0 0 0 .083-.015.127.127 0 0 0 .05-.026c.01-.012.015-.027.008-.047a.264.264 0 0 0-.035-.062c-.016-.02-.028-.04-.04-.06a1.72 1.72 0 0 1-.072-.134 7.912 7.912 0 0 1-.093-.203 26.622 26.622 0 0 1-.183-.544c-.047-.14-.095-.288-.146-.445-.05-.156-.101-.307-.149-.453a77.824 77.824 0 0 1-.124-.383l-.076-.233a4.893 4.893 0 0 1-.066-.224c-.027-.09-.055-.19-.086-.3a17.142 17.142 0 0 1-.102-.329 16.15 16.15 0 0 0-.106-.341.461.461 0 0 0-.06-.133c-.02-.025-.045-.034-.074-.025a.064.064 0 0 0-.047.056.31.31 0 0 0 .019.108c.02.06.037.12.053.182a.99.99 0 0 1 .026.148.541.541 0 0 1-.017.236.335.335 0 0 1-.116.156.915.915 0 0 1-.221.114l-.16.061c-.057.02-.125.046-.204.073-.08.026-.179.06-.298.098-.118.04-.266.089-.442.146l-.637.207-1.45.471zM69.728 104.38l-.109-.628a26.945 26.945 0 0 1-.084-.529 4.902 4.902 0 0 1-.045-.394.825.825 0 0 1 .017-.27.227.227 0 0 1 .137-.153.969.969 0 0 1 .26-.072c.046-.01.077-.024.091-.043a.064.064 0 0 0 .015-.055c-.004-.026-.02-.042-.046-.05a.249.249 0 0 0-.112-.001 4.7 4.7 0 0 0-.25.05c-.089.018-.177.038-.268.059a5.888 5.888 0 0 0-.248.048 5.433 5.433 0 0 1-.177.035c-.11.02-.238.04-.382.062l-.49.075a39.756 39.756 0 0 0-1.387.218c-.093.015-.166.03-.217.045a.2.2 0 0 0-.111.07.292.292 0 0 0-.04.143c-.005.04-.008.097-.006.17a6.21 6.21 0 0 0 .044.65c.006.041.017.078.031.112.016.034.038.05.068.047a.064.064 0 0 0 .05-.037.277.277 0 0 0 .015-.09 1.032 1.032 0 0 1 .05-.367.458.458 0 0 1 .18-.227.976.976 0 0 1 .216-.102c.082-.028.166-.052.249-.07.084-.02.16-.035.227-.047.254-.046.456-.066.608-.058.152.006.268.05.347.126.079.077.134.196.167.36l.043.222.052.301.053.309c.015.097.03.178.04.242l.103.58c.004.022.005.04.002.056a.035.035 0 0 1-.03.029l-.183.03c-.082.013-.172.028-.276.043a23.502 23.502 0 0 1-.567.083c-.076.01-.13.017-.158.017a.679.679 0 0 1-.234-.013.35.35 0 0 1-.146-.074.38.38 0 0 1-.088-.12 1.02 1.02 0 0 1-.04-.136c-.01-.045-.023-.087-.032-.125-.003-.017-.01-.03-.023-.04-.012-.009-.03-.012-.056-.007-.022.005-.038.016-.045.037a.187.187 0 0 0-.01.07.517.517 0 0 0 .007.068l.01.078c.006.038.01.082.015.132a4.69 4.69 0 0 1 .027.283l.017.296.009.169a.8.8 0 0 0 .007.074c.004.022.012.04.026.051.015.013.03.018.047.016.016-.003.032-.016.045-.037.014-.021.035-.046.058-.078a.349.349 0 0 1 .128-.1c.054-.026.125-.05.211-.075.035-.009.097-.023.185-.04.086-.017.187-.038.3-.058l.339-.063.3-.055.187-.032c.021-.004.036.002.045.016.01.012.016.03.02.052l.316 1.791a.086.086 0 0 1-.004.052c-.007.014-.018.022-.035.026l-.17.028-.275.043a16.604 16.604 0 0 1-.739.102c-.125.01-.223.008-.291-.006a.338.338 0 0 1-.158-.065.487.487 0 0 1-.092-.106.419.419 0 0 1-.05-.09.875.875 0 0 1-.048-.166.165.165 0 0 0-.024-.067c-.01-.015-.029-.02-.052-.016a.058.058 0 0 0-.043.032.143.143 0 0 0-.017.055l-.005.048a3.175 3.175 0 0 0 .019.246c.004.052.01.099.014.142l.009.097c.013.11.02.199.023.262 0 .065 0 .113-.002.145a.397.397 0 0 0 .002.072.098.098 0 0 0 .018.046c.01.013.024.018.045.014a.179.179 0 0 0 .054-.025c.019-.012.04-.02.06-.03l.125-.045c.054-.018.114-.036.183-.054.025-.006.087-.018.184-.035.098-.017.216-.04.357-.064l.446-.078.456-.078c.145-.026.271-.049.38-.066a20.626 20.626 0 0 1 .514-.086l.388-.06c.14-.022.275-.044.41-.068a.42.42 0 0 0 .123-.036c.028-.017.039-.037.034-.062-.004-.025-.02-.042-.045-.05a.19.19 0 0 0-.096-.004c-.057.01-.114.018-.17.024a.745.745 0 0 1-.333-.041.265.265 0 0 1-.12-.102.595.595 0 0 1-.074-.19l-.029-.141-.034-.18c-.013-.07-.03-.158-.048-.263l-.07-.39-.098-.56-.226-1.28zm9.45 1.283a.166.166 0 0 1 .016.082c-.004.02-.019.04-.043.06a.891.891 0 0 1-.157.094c-.07.034-.155.07-.255.11a1.287 1.287 0 0 1-1.12-.082 1.46 1.46 0 0 1-.383-.333 2.113 2.113 0 0 1-.32-.558 2.291 2.291 0 0 1-.16-.594 1.45 1.45 0 0 1 .015-.464c.03-.135.074-.246.131-.338a.653.653 0 0 1 .262-.25 2.992 2.992 0 0 1 .467-.194c.075-.024.15-.044.222-.06.075-.015.143-.025.208-.03.032 0 .057.008.077.025.02.017.036.048.053.091l.987 2.441zm-.353-3.604c-.1-.247-.194-.479-.281-.698-.086-.217-.16-.412-.225-.587a5.637 5.637 0 0 1-.146-.442 1.827 1.827 0 0 1-.046-.227.448.448 0 0 1 .008-.18.215.215 0 0 1 .093-.129 1.52 1.52 0 0 1 .276-.148.225.225 0 0 0 .093-.059.056.056 0 0 0 .01-.058c-.012-.028-.033-.043-.067-.044a.327.327 0 0 0-.127.029c-.082.033-.17.07-.266.112l-.282.124c-.094.04-.177.077-.25.11a4.22 4.22 0 0 1-.343.138l-.294.11-.36.136a15.04 15.04 0 0 0-.366.143.329.329 0 0 0-.111.067c-.023.024-.028.05-.017.078.008.02.023.033.044.037.02.006.047.001.079-.012.033-.013.073-.028.12-.043l.146-.046.14-.038a.35.35 0 0 1 .215.004c.058.022.11.062.153.116.044.055.086.12.124.195.06.11.127.249.202.42.075.17.158.364.247.582.09.217.185.451.286.702l.045.112c.01.024.011.042.003.058-.007.014-.02.024-.04.033l-.706.266a.278.278 0 0 1-.083.022.154.154 0 0 1-.085-.02 2.682 2.682 0 0 1-.188-.113c-.086-.053-.187-.119-.303-.193l-.368-.238-.384-.244c-.232-.145-.44-.27-.626-.374a4.107 4.107 0 0 0-.512-.248 1.76 1.76 0 0 0-.44-.114 1.237 1.237 0 0 0-.539.058 4.449 4.449 0 0 0-.382.137l-.763.308a.335.335 0 0 0-.106.062c-.022.023-.026.05-.014.08.008.02.022.033.043.038a.133.133 0 0 0 .08-.012 1.006 1.006 0 0 1 .234-.067 1.306 1.306 0 0 1 .37-.025c.092.006.2.025.325.055.124.031.267.083.425.153.338.155.719.351 1.147.59.43.238.912.512 1.45.818-.18.327-.308.62-.383.883a2.175 2.175 0 0 0-.09.723c.01.217.059.425.14.622a1.468 1.468 0 0 0 .47.618c.093.073.184.132.275.174.09.043.172.072.246.088.185.038.369.05.553.035a2.83 2.83 0 0 0 .543-.104c.179-.053.352-.113.521-.183.065-.026.144-.06.242-.103.097-.04.2-.087.31-.134l.316-.137a6.936 6.936 0 0 1 .44-.178l.274-.101c.102-.039.21-.077.322-.12.112-.043.222-.086.33-.13a.423.423 0 0 0 .127-.068c.024-.023.031-.047.02-.075-.011-.027-.03-.042-.058-.043a.308.308 0 0 0-.108.026 3.09 3.09 0 0 1-.177.065c-.06.019-.109.032-.146.037a.528.528 0 0 1-.237 0 .332.332 0 0 1-.164-.106.892.892 0 0 1-.13-.212l-.071-.155c-.024-.056-.054-.121-.086-.198l-.12-.29c-.048-.116-.106-.26-.175-.433-.07-.17-.154-.378-.251-.62l-.571-1.415zm5.653-5.535c.304-.193.613-.311.927-.35.312-.039.62-.008.92.09.301.098.585.256.852.474.265.217.502.487.711.805.196.305.334.587.417.844.081.258.117.493.106.707a1.555 1.555 0 0 1-.432 1.026c-.124.13-.257.24-.402.333-.26.166-.535.273-.824.318-.29.043-.58.024-.875-.058a2.453 2.453 0 0 1-.846-.438 3.374 3.374 0 0 1-.742-.828 3.983 3.983 0 0 1-.414-.807 2.32 2.32 0 0 1-.146-.667 1.536 1.536 0 0 1 .5-1.252c.089-.083.171-.148.248-.197zm.045-.504c-.33.216-.606.456-.83.72a3.08 3.08 0 0 0-.514.838 2.831 2.831 0 0 0-.1 1.827c.087.305.22.6.405.885.232.354.5.635.804.841.305.206.637.336.994.39.358.053.733.028 1.123-.074a4.12 4.12 0 0 0 1.195-.545c.323-.21.59-.435.803-.673.214-.237.38-.48.5-.732a2.705 2.705 0 0 0 .255-1.488 2.87 2.87 0 0 0-.158-.681 2.837 2.837 0 0 0-.718-1.106 2.956 2.956 0 0 0-.561-.424 2.73 2.73 0 0 0-1.444-.371 2.958 2.958 0 0 0-.848.151 3.879 3.879 0 0 0-.906.442zm11.837-4.925l-.017.019a5.66 5.66 0 0 1-.319.01c-.161 0-.36.003-.597.004-.238.003-.496.009-.776.015-.28.008-.566.02-.856.035-.28.014-.565.03-.856.047-.291.015-.576.032-.85.047l-.768.048c-.234.014-.433.028-.597.039a.658.658 0 0 0-.172.027.342.342 0 0 0-.155.095c-.021.023-.027.055-.017.098a.358.358 0 0 0 .105.15l3.338 3.23c.098.096.172.177.22.247.047.068.074.13.078.19a.338.338 0 0 1-.044.18.666.666 0 0 1-.14.188.19.19 0 0 0-.05.088.064.064 0 0 0 .018.06c.021.02.047.023.075.005a.426.426 0 0 0 .094-.084c.128-.137.235-.256.32-.356.086-.1.144-.166.175-.2l.164-.17.24-.244c.089-.091.18-.186.27-.284a.537.537 0 0 0 .086-.108c.017-.031.014-.058-.006-.079a.07.07 0 0 0-.057-.02c-.023.004-.05.023-.083.056a2.921 2.921 0 0 1-.085.09 1.228 1.228 0 0 1-.108.097.545.545 0 0 1-.11.075.342.342 0 0 1-.172.04.474.474 0 0 1-.202-.074 2.119 2.119 0 0 1-.278-.22l-2.449-2.175.024-.026c.034-.003.11-.006.231-.01l.446-.012.565-.017a127.88 127.88 0 0 0 1.09-.037l.928-.039c.305-.012.596-.023.87-.032l.74-.022.533-.015c.137-.005.22-.007.248-.007.093-.002.176-.007.245-.014.071-.008.123-.028.157-.062.026-.029.03-.068.012-.117a.396.396 0 0 0-.107-.15l-3.146-3.028a6.054 6.054 0 0 1-.356-.36.736.736 0 0 1-.157-.236.226.226 0 0 1 .02-.183c.027-.048.06-.097.098-.146.04-.049.076-.093.112-.131a.16.16 0 0 0 .043-.08c.004-.025-.002-.047-.017-.063-.025-.021-.052-.024-.08-.01a.397.397 0 0 0-.095.084 10.3 10.3 0 0 0-.248.277c-.075.087-.14.16-.193.223a3.4 3.4 0 0 1-.102.12c-.049.05-.133.135-.255.255-.12.118-.266.269-.437.45a.361.361 0 0 0-.074.102c-.013.03-.01.057.013.077.016.015.037.02.062.015a.184.184 0 0 0 .084-.057 1.9 1.9 0 0 1 .141-.136.928.928 0 0 1 .168-.12.247.247 0 0 1 .163-.024.683.683 0 0 1 .24.102c.096.059.215.151.358.276l2.257 1.987zm6.084-8.955l-.013.022c-.049.018-.15.046-.306.086l-.579.15c-.23.06-.478.128-.75.202-.269.076-.543.156-.82.241-.269.081-.542.166-.821.252-.278.085-.55.17-.813.252l-.733.232c-.224.07-.413.133-.57.183a.682.682 0 0 0-.16.068.35.35 0 0 0-.128.128c-.015.029-.013.06.007.1a.371.371 0 0 0 .139.12l4.02 2.328c.118.069.21.13.273.186a.382.382 0 0 1 .121.164.336.336 0 0 1 .002.186.685.685 0 0 1-.09.218.19.19 0 0 0-.028.096c.002.026.013.044.032.055.025.014.05.01.073-.014a.41.41 0 0 0 .072-.104c.09-.164.166-.306.225-.424.058-.118.098-.196.121-.236.027-.05.066-.118.118-.204a40.635 40.635 0 0 0 .367-.637.498.498 0 0 0 .057-.126c.009-.033 0-.058-.025-.074a.072.072 0 0 0-.06-.005c-.022.009-.043.034-.067.073l-.061.108c-.025.041-.05.082-.08.12a.572.572 0 0 1-.09.1.353.353 0 0 1-.157.081.482.482 0 0 1-.213-.024 2.107 2.107 0 0 1-.324-.145l-2.902-1.52.016-.03a5.97 5.97 0 0 1 .223-.065l.43-.12.543-.152c.192-.055.38-.107.562-.16a87.328 87.328 0 0 0 1.378-.403c.293-.085.573-.166.837-.24.265-.077.503-.143.712-.202.211-.06.382-.107.514-.143.131-.038.211-.059.239-.067.089-.025.168-.049.235-.073.066-.025.112-.056.136-.098.018-.034.013-.073-.016-.116a.403.403 0 0 0-.14-.12l-3.786-2.177a5.93 5.93 0 0 1-.432-.263.713.713 0 0 1-.209-.191.223.223 0 0 1-.026-.183c.015-.053.035-.108.06-.165.027-.056.052-.108.078-.155a.167.167 0 0 0 .022-.087.071.071 0 0 0-.032-.057c-.03-.015-.056-.011-.08.01a.403.403 0 0 0-.072.104 9.774 9.774 0 0 0-.173.328c-.052.103-.098.19-.133.264-.036.072-.058.119-.07.14-.036.062-.098.165-.187.31-.088.144-.193.325-.315.542a.365.365 0 0 0-.047.117c-.005.034.005.058.032.072.019.011.04.011.063-.001a.177.177 0 0 0 .068-.074c.03-.055.064-.11.104-.167a.943.943 0 0 1 .134-.157.25.25 0 0 1 .153-.063.676.676 0 0 1 .258.04c.106.035.244.095.412.182l2.672 1.382zm1.47-7.396c-.269-.087-.516-.168-.745-.244a25.66 25.66 0 0 1-.606-.208 5.453 5.453 0 0 1-.432-.173.857.857 0 0 1-.262-.159.242.242 0 0 1-.073-.213c.004-.04.01-.086.019-.137.01-.052.024-.11.044-.17a.227.227 0 0 0 .016-.11.055.055 0 0 0-.039-.044c-.028-.01-.054-.003-.077.022a.33.33 0 0 0-.059.116c-.027.084-.055.176-.085.276l-.088.3c-.03.098-.056.19-.08.273a5.55 5.55 0 0 1-.167.507l-.157.444c-.058.166-.118.34-.178.523a.312.312 0 0 0-.017.12c.004.032.02.053.049.064.02.007.04 0 .058-.017a.214.214 0 0 0 .05-.094 3.49 3.49 0 0 1 .05-.137l.06-.144c.022-.048.041-.09.06-.128a.408.408 0 0 1 .132-.167.324.324 0 0 1 .17-.054.795.795 0 0 1 .209.022c.123.028.274.069.455.122.182.055.386.118.616.191.23.073.476.154.744.24l1.45.472.638.207.443.145c.12.039.218.073.297.1.08.026.147.05.204.071l.16.06c.14.052.242.114.303.183.06.068.084.16.067.275a1.22 1.22 0 0 1-.056.256.23.23 0 0 0-.014.1c.005.029.023.048.054.058.025.009.047-.003.068-.03a.485.485 0 0 0 .055-.121 9.39 9.39 0 0 0 .08-.261l.084-.286.077-.265a5.442 5.442 0 0 1 .137-.424c.032-.088.065-.18.1-.282.036-.099.072-.197.105-.293.035-.098.066-.186.091-.265a.587.587 0 0 0 .035-.153c0-.037-.012-.06-.037-.067-.031-.01-.057-.005-.077.014a.233.233 0 0 0-.048.091 1.056 1.056 0 0 1-.129.285.306.306 0 0 1-.207.157.726.726 0 0 1-.346-.026l-.164-.044-.208-.062-.299-.095c-.12-.038-.268-.085-.444-.143l-.637-.207-1.45-.471zM25.5 83.197c.188.307.3.618.334.933.033.313-.002.62-.105.918-.104.3-.267.581-.49.844a3.523 3.523 0 0 1-.817.696c-.309.191-.593.325-.85.403-.26.077-.496.109-.71.094a1.553 1.553 0 0 1-1.017-.45 2.129 2.129 0 0 1-.326-.408 2.113 2.113 0 0 1-.304-.83 2.1 2.1 0 0 1 .072-.873 2.46 2.46 0 0 1 .454-.838c.216-.268.495-.51.84-.729.297-.183.567-.316.815-.4.245-.083.469-.127.669-.133.201-.005.379.017.536.065a1.555 1.555 0 0 1 .707.456c.08.09.145.174.192.252zm.503.054a3.794 3.794 0 0 0-.704-.842 3.103 3.103 0 0 0-.83-.529 2.83 2.83 0 0 0-1.826-.131c-.305.08-.603.209-.89.389a2.938 2.938 0 0 0-.856.79c-.21.3-.346.63-.407.986-.06.357-.04.732.054 1.124.094.393.27.795.525 1.205.205.326.424.597.659.814.233.218.473.388.722.511a2.7 2.7 0 0 0 1.485.282c.239-.022.467-.07.683-.146a2.886 2.886 0 0 0 1.552-1.252 2.704 2.704 0 0 0 .396-1.436c0-.272-.047-.555-.137-.852a3.872 3.872 0 0 0-.426-.913zm5.204 6.746a7.816 7.816 0 0 0-.65-.562 4.268 4.268 0 0 0-.323-.226 1.933 1.933 0 0 0-.287-.153.474.474 0 0 0-.124-.036.214.214 0 0 0-.1.008.534.534 0 0 0-.113.053 3.66 3.66 0 0 0-.193.122 8.888 8.888 0 0 0-.23.167 8.342 8.342 0 0 0-.414.32c-.05.042-.085.072-.1.087a.207.207 0 0 0-.052.077c-.009.025-.003.049.018.07.023.024.048.034.075.026a.437.437 0 0 0 .126-.071 1.474 1.474 0 0 1 .61-.207c.172-.016.337.003.492.054.157.053.313.138.471.255.159.117.33.264.514.443.14.135.265.297.376.481.11.186.198.391.266.614a2.905 2.905 0 0 1-.253 2.256c-.141.26-.331.515-.569.764a4.737 4.737 0 0 1-.621.548 2.877 2.877 0 0 1-.706.381c-.251.091-.519.137-.805.13a1.86 1.86 0 0 1-.51-.083 2.1 2.1 0 0 1-.507-.238 3.867 3.867 0 0 1-1.014-.993 2.69 2.69 0 0 1-.304-.559 1.322 1.322 0 0 1-.102-.48c.002-.156.031-.306.089-.446.055-.14.13-.26.222-.361a.457.457 0 0 0 .085-.113c.014-.033.009-.061-.015-.085a.078.078 0 0 0-.09-.017.43.43 0 0 0-.123.089c-.034.028-.078.07-.13.122l-.175.175-.19.189a5.196 5.196 0 0 1-.356.33l-.115.094a.727.727 0 0 0-.065.057.088.088 0 0 0-.026.069c0 .029.016.06.047.097.083.099.164.21.247.331a7.49 7.49 0 0 0 .517.674 7.729 7.729 0 0 0 .6.637c.31.298.61.536.901.716.293.18.579.311.861.393.283.083.564.127.846.132a2.99 2.99 0 0 0 .79-.084c.244-.062.467-.145.669-.248a3.444 3.444 0 0 0 .92-.671c.147-.15.285-.318.414-.5.131-.184.244-.382.34-.598a2.997 2.997 0 0 0 .248-1.487 3.513 3.513 0 0 0-.236-.99 4.217 4.217 0 0 0-.503-.907 6.266 6.266 0 0 0-.743-.846zm12.656 9.382a.93.93 0 0 0 .014-.225.134.134 0 0 0-.07-.11.144.144 0 0 0-.1-.015.427.427 0 0 0-.134.066 4.728 4.728 0 0 0-.21.155c-.086.066-.199.156-.339.268a93.74 93.74 0 0 0-.467.386c-.171.145-.35.293-.536.45l-.544.46-.497.421c-.151.13-.281.239-.385.328l-.217.182-.015-.008.339-3.94c.015-.143.017-.247.01-.311-.008-.065-.037-.109-.08-.13-.047-.026-.098-.026-.153.006-.053.03-.128.091-.224.186-.143.134-.307.288-.493.465-.185.176-.383.361-.594.56a150.511 150.511 0 0 1-1.842 1.719c-.175.16-.327.294-.452.404-.112.101-.212.19-.298.265-.087.075-.166.13-.238.17a.342.342 0 0 1-.201.046.877.877 0 0 1-.254-.095c-.03-.016-.057-.02-.08-.015a.078.078 0 0 0-.052.042c-.01.02-.006.04.01.058.017.02.045.04.084.061.075.04.153.08.235.12l.213.104a2.975 2.975 0 0 1 .251.134l.25.142c.1.057.21.116.328.18a.44.44 0 0 0 .127.05c.032.004.054-.003.067-.027.009-.02.006-.041-.01-.066a.19.19 0 0 0-.069-.063.786.786 0 0 1-.191-.132c-.04-.042-.062-.082-.065-.117a.185.185 0 0 1 .025-.11c.024-.046.059-.098.104-.155.046-.058.101-.119.164-.183.107-.106.233-.23.376-.374l.456-.454.48-.483.457-.455c.142-.143.268-.266.377-.374.108-.106.19-.186.247-.238l.023.012-.362 3.93a1.4 1.4 0 0 0-.01.29c.009.068.032.113.07.133.03.018.07.018.123.002a.657.657 0 0 0 .201-.133l3.054-2.645.024.012-.047.259-.08.43c-.03.167-.065.346-.102.538l-.11.578-.108.554a54.988 54.988 0 0 1-.16.773c-.036.174-.069.318-.096.435a1.208 1.208 0 0 1-.075.24.215.215 0 0 1-.055.076c-.02.016-.048.021-.083.017a.41.41 0 0 1-.097-.02.561.561 0 0 1-.087-.039.214.214 0 0 0-.096-.028c-.03-.001-.05.01-.063.032-.013.023-.01.044.01.067.018.02.053.045.102.071a18.315 18.315 0 0 0 .644.328c.075.037.123.06.144.072l.099.055.182.104a20.403 20.403 0 0 0 .492.27c.05.027.09.044.12.048.032.004.053-.003.065-.027a.063.063 0 0 0 0-.066.162.162 0 0 0-.07-.06 1.254 1.254 0 0 1-.166-.112.32.32 0 0 1-.066-.08.414.414 0 0 1-.04-.226c.006-.092.02-.21.043-.351l.773-4.887zm7.475 4.619l.188-.609c.06-.19.115-.36.165-.51.05-.15.097-.273.14-.37a.848.848 0 0 1 .137-.234.226.226 0 0 1 .192-.074.854.854 0 0 1 .119.015c.042.009.091.022.145.039.045.012.08.013.1.003.021-.01.035-.024.039-.042.007-.025 0-.047-.02-.067a.247.247 0 0 0-.098-.05 12.948 12.948 0 0 0-.51-.138 5.108 5.108 0 0 0-.244-.07l-.173-.049a15.55 15.55 0 0 1-.369-.119l-.471-.156c-.176-.063-.373-.13-.594-.202-.221-.071-.468-.15-.741-.233a1.9 1.9 0 0 0-.213-.058.196.196 0 0 0-.13.011.3.3 0 0 0-.102.11c-.023.034-.05.083-.082.149a7.248 7.248 0 0 0-.1.214c-.036.078-.066.151-.095.22-.029.07-.048.124-.06.165a.452.452 0 0 0-.024.114c-.002.037.012.061.039.072.023.007.044.005.062-.01a.271.271 0 0 0 .054-.072c.067-.137.138-.239.211-.306a.457.457 0 0 1 .263-.12c.073-.007.153-.005.24.007.085.012.17.03.253.05.084.022.157.042.223.063.247.074.436.148.568.223a.518.518 0 0 1 .253.27c.034.105.03.236-.015.396l-.062.218-.091.292-.094.3c-.03.093-.054.171-.072.234l-.173.563a.14.14 0 0 1-.024.05c-.01.012-.023.017-.04.012a8.696 8.696 0 0 1-1.133-.383.687.687 0 0 1-.203-.117.345.345 0 0 1-.096-.133.38.38 0 0 1-.024-.147.957.957 0 0 1 .026-.138l.028-.126a.057.057 0 0 0-.002-.046c-.007-.015-.021-.025-.047-.033-.022-.005-.041-.002-.056.013a.174.174 0 0 0-.042.057 3.33 3.33 0 0 1-.097.264c-.017.047-.034.094-.053.14l-.051.123-.12.271-.068.155a.752.752 0 0 0-.028.07.083.083 0 0 0 .001.057c.007.018.018.03.034.036.016.004.035 0 .057-.012.022-.013.052-.027.087-.044a.354.354 0 0 1 .16-.03c.06 0 .133.01.221.028l.184.047c.084.024.183.052.292.085l.331.098.294.088.18.056c.02.006.031.018.034.034a.126.126 0 0 1-.007.056l-.532 1.74a.09.09 0 0 1-.027.044c-.012.01-.026.011-.043.006a11.219 11.219 0 0 1-1.133-.382 1.066 1.066 0 0 1-.257-.137.337.337 0 0 1-.145-.267.405.405 0 0 1-.003-.102.927.927 0 0 1 .032-.17.169.169 0 0 0 .01-.07c-.003-.018-.017-.032-.04-.039a.061.061 0 0 0-.053.01.152.152 0 0 0-.04.04c-.01.016-.02.03-.025.04a3.55 3.55 0 0 0-.096.228c-.02.049-.036.094-.05.134-.018.04-.03.071-.038.09a2.093 2.093 0 0 1-.165.372.429.429 0 0 0-.032.066.096.096 0 0 0-.004.049c.002.015.012.026.033.032a.184.184 0 0 0 .06.004.403.403 0 0 1 .066 0l.133.017c.055.008.117.019.187.034.025.006.086.023.18.052.095.03.21.063.347.105l.434.134.44.136c.142.043.264.08.369.114l.218.067.28.09c.114.038.238.08.372.123.134.044.265.086.395.125a.411.411 0 0 0 .127.024c.033-.002.051-.014.06-.039.007-.025 0-.047-.019-.066a.196.196 0 0 0-.083-.047 2.484 2.484 0 0 1-.163-.055.74.74 0 0 1-.278-.188.27.27 0 0 1-.061-.146.585.585 0 0 1 .02-.202l.039-.14.051-.175c.021-.07.045-.154.077-.256.03-.102.07-.228.116-.378l.165-.545.38-1.242zm9.973 2.992h-.026a4.571 4.571 0 0 1-.22-.231l-.404-.44a37 37 0 0 0-1.128-1.18c-.198-.198-.4-.4-.608-.605-.206-.206-.409-.406-.605-.6-.197-.196-.38-.375-.548-.538-.167-.165-.311-.303-.429-.418a.628.628 0 0 0-.135-.11.344.344 0 0 0-.174-.051c-.032 0-.06.017-.085.054a.365.365 0 0 0-.04.178l-.168 4.641a1.72 1.72 0 0 1-.036.329.384.384 0 0 1-.089.185.338.338 0 0 1-.163.088.767.767 0 0 1-.234.022.191.191 0 0 0-.099.021.065.065 0 0 0-.033.055c0 .028.016.049.047.058.03.01.072.014.126.013.188.004.348.004.48 0 .13-.003.218-.004.265-.004.056.001.134.004.235.009l.342.015c.127.005.259.008.393.011a.529.529 0 0 0 .137-.01c.035-.008.053-.027.054-.057a.067.067 0 0 0-.023-.055c-.019-.014-.05-.022-.096-.025-.036 0-.078 0-.125-.003a1.402 1.402 0 0 1-.144-.014.565.565 0 0 1-.13-.033.337.337 0 0 1-.144-.1.466.466 0 0 1-.08-.2 2.086 2.086 0 0 1-.024-.354l-.02-3.276h.034c.024.024.078.078.162.167.084.086.186.195.308.323s.25.263.39.408l.404.422.353.364c.22.222.436.442.65.663.213.219.416.427.606.626l.512.534.367.386.172.18c.063.067.122.126.174.173.053.047.103.073.15.075.04 0 .072-.024.096-.07a.4.4 0 0 0 .04-.18l.145-4.364a6.1 6.1 0 0 1 .029-.505.724.724 0 0 1 .071-.274.226.226 0 0 1 .149-.11c.054-.011.111-.018.174-.023.062-.004.12-.006.174-.004a.161.161 0 0 0 .086-.022.07.07 0 0 0 .036-.055c-.001-.032-.017-.054-.046-.065a.39.39 0 0 0-.126-.015 9.305 9.305 0 0 0-.37 0c-.117.003-.215.004-.296.007a3.311 3.311 0 0 1-.157.004c-.071-.002-.191-.009-.361-.02a17.08 17.08 0 0 0-.627-.023.381.381 0 0 0-.126.014c-.032.01-.048.031-.048.06 0 .023.009.042.03.056a.18.18 0 0 0 .099.026c.061 0 .127.004.195.013.07.008.136.023.202.045a.252.252 0 0 1 .127.105.671.671 0 0 1 .085.247c.02.11.031.26.034.45l.034 3.007zM19.93 77.277c.255-.078.494-.151.719-.218.224-.067.426-.124.605-.173.18-.05.331-.085.453-.107.083-.015.16-.023.229-.026.07-.004.13.004.18.023.051.018.092.052.12.104a1.465 1.465 0 0 1 .124.289.23.23 0 0 0 .05.097c.017.017.037.02.057.014.03-.009.046-.028.05-.061a.332.332 0 0 0-.017-.13 16.767 16.767 0 0 0-.093-.274 5.512 5.512 0 0 1-.1-.292 8.253 8.253 0 0 1-.09-.274c-.028-.084-.047-.149-.061-.196a13.83 13.83 0 0 1-.239-.869l-.174-.622c-.066-.236-.145-.51-.24-.819a2.093 2.093 0 0 0-.082-.24.225.225 0 0 0-.096-.116.339.339 0 0 0-.174-.025c-.046.002-.113.01-.197.022-.085.013-.177.029-.274.046-.099.018-.191.036-.277.055a2.833 2.833 0 0 0-.204.05.388.388 0 0 0-.103.04c-.027.016-.035.04-.026.071.009.028.023.047.046.053a.246.246 0 0 0 .106 0c.177-.023.321-.02.435.007.114.028.21.088.292.18.056.062.103.139.146.228.043.088.08.18.11.27.034.092.06.177.081.25.066.209.108.382.129.518a.714.714 0 0 1-.016.33.41.41 0 0 1-.168.21 1.461 1.461 0 0 1-.337.149c-.049.017-.114.038-.197.063-.083.027-.175.055-.276.086l-.306.092-.286.086-.219.065-.654.2a.155.155 0 0 1-.064.01c-.016-.003-.028-.013-.035-.034l-.054-.184a21.021 21.021 0 0 1-.08-.272l-.087-.298-.073-.264a2.74 2.74 0 0 1-.04-.166.794.794 0 0 1-.014-.266.41.41 0 0 1 .066-.18.392.392 0 0 1 .129-.117c.05-.029.102-.052.152-.072.05-.018.096-.037.136-.052a.09.09 0 0 0 .048-.031c.01-.016.013-.037.004-.067-.009-.024-.022-.038-.042-.044a.149.149 0 0 0-.067 0 .6.6 0 0 0-.071.018 1.686 1.686 0 0 1-.09.023l-.152.036a8.402 8.402 0 0 1-.173.04 9.34 9.34 0 0 1-.687.14.518.518 0 0 0-.088.016c-.025.008-.04.019-.048.033a.063.063 0 0 0 0 .046c.005.019.02.037.046.05.026.015.06.03.101.05a.334.334 0 0 1 .134.124c.038.06.075.137.112.235.015.039.038.103.068.19.028.089.062.19.096.302l.107.338.093.301.058.19c.008.025.004.042-.009.055a.164.164 0 0 1-.064.03l-2.097.641c-.029.009-.05.011-.068.006-.015-.004-.026-.017-.033-.039-.01-.034-.028-.092-.05-.172l-.078-.274-.087-.308a10.217 10.217 0 0 1-.11-.432 1.516 1.516 0 0 1-.03-.335.421.421 0 0 1 .049-.194.406.406 0 0 1 .109-.118.849.849 0 0 1 .283-.14.212.212 0 0 0 .08-.042c.017-.017.022-.04.013-.068-.01-.03-.026-.045-.049-.052a.18.18 0 0 0-.067-.003 3.64 3.64 0 0 0-.288.063l-.164.037-.108.025c-.128.03-.229.05-.305.064-.075.01-.132.019-.17.021-.038.005-.066.008-.084.014a.12.12 0 0 0-.05.026c-.01.01-.015.026-.009.046a.25.25 0 0 0 .034.062 1.453 1.453 0 0 1 .109.197c.027.059.056.127.09.205a22.692 22.692 0 0 1 .173.546l.138.448.14.454.118.386.072.235a35.55 35.55 0 0 1 .143.527c.032.104.064.214.096.33.033.116.066.23.1.343a.45.45 0 0 0 .058.134c.02.025.044.034.073.025.027-.008.045-.027.048-.053a.32.32 0 0 0-.016-.11 2.976 2.976 0 0 1-.05-.183.989.989 0 0 1-.024-.148.537.537 0 0 1 .021-.235.33.33 0 0 1 .12-.155.931.931 0 0 1 .222-.11l.16-.058.206-.07.3-.093.445-.137.64-.196 1.459-.446z"/><path d="M21.078 101.032c10.23 10.23 24.364 16.558 39.977 16.558 15.611 0 29.745-6.328 39.976-16.558 10.231-10.23 16.56-24.365 16.56-39.977 0-15.612-6.329-29.746-16.56-39.978C90.801 10.847 76.666 4.52 61.055 4.52c-15.613 0-29.746 6.328-39.977 16.558C10.847 31.31 4.518 45.443 4.518 61.055c0 15.612 6.329 29.746 16.56 39.977m39.977 18.094c-16.036 0-30.554-6.5-41.063-17.009C9.484 91.608 2.984 77.091 2.984 61.055c0-16.036 6.5-30.554 17.008-41.062C30.501 9.483 45.02 2.984 61.055 2.984c16.035 0 30.553 6.5 41.061 17.009 10.509 10.508 17.009 25.026 17.009 41.062 0 16.036-6.5 30.553-17.009 41.062-10.508 10.509-25.026 17.009-41.061 17.009" fill="#4D4D4D"/><path d="M36.815 85.295c6.203 6.203 14.773 10.04 24.24 10.04 9.466 0 18.036-3.837 24.24-10.04 6.202-6.204 10.04-14.774 10.04-24.24 0-9.467-3.838-18.037-10.04-24.24-6.204-6.203-14.774-10.04-24.24-10.04-9.467 0-18.037 3.838-24.24 10.04-6.203 6.203-10.04 14.773-10.04 24.24 0 9.466 3.837 18.036 10.04 24.24m24.24 13.11c-10.315 0-19.652-4.181-26.41-10.94-6.76-6.759-10.94-16.097-10.94-26.41 0-10.313 4.18-19.651 10.94-26.41 6.758-6.759 16.095-10.94 26.41-10.94 10.313 0 19.65 4.181 26.41 10.94 6.759 6.759 10.939 16.097 10.939 26.41 0 10.313-4.18 19.651-10.94 26.41-6.758 6.759-16.096 10.94-26.41 10.94" fill="#4D4D4D"/></g></svg>